<?xml version="1.0" standalone="no"?><!DOCTYPE svg PUBLIC "-//W3C//DTD SVG 1.1//EN" "http://www.w3.org/Graphics/SVG/1.1/DTD/svg11.dtd"><svg t="1761307955494" class="icon" viewBox="0 0 1024 1024" version="1.1" xmlns="http://www.w3.org/2000/svg" p-id="10491" xmlns:xlink="http://www.w3.org/1999/xlink" width="200" height="200"><path d="M613.226667 818.346667h-0.064c-25.770667 0.64-50.837333 9.344-74.133334 25.493333-55.445333 38.506667-120.469333 38.4-176.064-0.106667a12.8 12.8 0 1 1 14.570667-21.034666c46.848 32.426667 100.224 32.512 146.901333 0.106666 27.029333-18.773333 56.64-29.098667 87.296-30.016a12.949333 12.949333 0 0 1 1.450667-0.042666c29.738667 0.768 58.410667 11.2 84.544 30.208a12.8 12.8 0 1 1-15.061333 20.693333c-21.866667-15.914667-45.354667-24.533333-69.44-25.301333z m0-122.304h-0.064c-25.770667 0.64-50.837333 9.322667-74.133334 25.493333-55.445333 38.485333-120.469333 38.4-176.064-0.106667-24.170667-16.746667-50.24-25.429333-77.034666-25.429333-26.794667 0-52.885333 8.682667-77.034667 25.429333a12.8 12.8 0 0 1-14.592-21.056c28.330667-19.605333 59.434667-29.973333 91.626667-29.973333 32.170667 0 63.296 10.368 91.605333 29.973333 46.848 32.448 100.224 32.533333 146.901333 0.128 27.029333-18.773333 56.64-29.12 87.296-30.037333a12.949333 12.949333 0 0 1 1.450667-0.042667c29.738667 0.768 58.410667 11.2 84.544 30.229334 44.181333 32.170667 94.570667 32.106667 138.922667-0.128a12.8 12.8 0 1 1 15.04 20.714666c-53.333333 38.741333-115.84 38.826667-169.024 0.106667-21.866667-15.914667-45.354667-24.533333-69.44-25.301333zM576 332.8a12.8 12.8 0 0 1 0-25.6h95.573333a12.8 12.8 0 0 1 9.045334 21.845333l-73.706667 73.706667h64.64a12.8 12.8 0 1 1 0 25.6H576a12.8 12.8 0 0 1-9.045333-21.845333L640.64 332.8H576z m149.333333-85.333333a12.8 12.8 0 0 1 0-25.6h64a12.8 12.8 0 0 1 9.045334 21.845333L756.266667 285.866667H789.333333a12.8 12.8 0 0 1 0 25.6h-64a12.8 12.8 0 0 1-9.045333-21.845334L758.4 247.466667H725.333333z m-213.333333-64C330.56 183.466667 183.466667 330.56 183.466667 512a328.170667 328.170667 0 0 0 23.936 123.349333 12.8 12.8 0 0 1-23.722667 9.6A353.770667 353.770667 0 0 1 157.866667 512c0-195.562667 158.549333-354.112 354.133333-354.112 27.690667 0 54.954667 3.178667 81.450667 9.408 12.693333 2.986667 13.312 20.821333 0.853333 24.682667a189.952 189.952 0 0 0-123.776 241.514666 189.930667 189.930667 0 0 0 361.514667-3.776c3.84-12.458667 21.696-11.84 24.682666 0.853334 6.229333 26.496 9.408 53.76 9.408 81.450666 0 45.994667-8.789333 90.794667-25.642666 132.544a12.8 12.8 0 0 1-23.744-9.578666A327.573333 327.573333 0 0 0 840.533333 512c0-11.285333-0.576-22.485333-1.706666-33.578667a215.573333 215.573333 0 0 1-392.597334-36.842666 215.573333 215.573333 0 0 1 99.349334-256.426667C534.485333 184.042667 523.306667 183.466667 512 183.466667z" p-id="10492"></path></svg>