<svg t="1735050699976" class="icon" viewBox="0 0 1024 1024" version="1.1" xmlns="http://www.w3.org/2000/svg" p-id="39588" width="300" height="300"><path d="M500.56192 282.06592c0-23.46496 0.08192-46.92992-0.08192-70.39488-0.0256-3.89632-0.32768-7.94624-3.24608-11.25888-0.95232-1.08032-1.4336-2.80576-1.33632-4.52608 0.21504-3.91168-0.15872-7.6544-2.75968-10.9568-1.66912-2.11968-1.50016-5.0944-2.78528-7.45472-0.15872-0.29184-0.22016-0.73728-0.4608-0.87552-4.42368-2.55488-5.0432-7.808-8.14592-11.42272-5.18144-6.03648-9.24672-12.98432-14.57152-19.01056-2.7392-3.10272-5.56544-6.11328-8.43264-9.088-1.70496-1.77152-1.15712-3.8656-0.72192-5.74976 0.38912-1.69472 2.176-1.2544 3.49184-1.2544 8.192-0.01536 16.384-0.00512 24.576-0.01536 1.11616 0 2.14528-0.01536 2.99008 0.99328 1.73568 2.0736 4.10624 3.11808 6.69184 3.712 1.06496 0.24576 1.81248 1.00352 2.5088 1.67424 2.7136 2.6112 6.4768 3.03104 9.57952 4.8128 1.05472 0.60928 1.5872 1.31584 2.08896 2.54976 0.81408 1.9968 1.9712 4.17792 4.39296 4.84864 1.23392 0.34304 1.7408 1.33632 1.80224 2.22208 0.26624 3.82976 1.7152 6.9632 4.75136 9.35936 0.50688 0.39936 0.78848 1.00864 1.00864 1.70496 0.7424 2.31424 1.42336 4.60288 3.27168 6.48704 1.6896 1.72032 1.67424 4.39296 2.11968 6.65088 0.50176 2.56512 1.08544 4.87936 3.01056 6.77888 1.23904 1.22368 1.69472 3.14368 1.62816 4.62336-0.20992 4.83328 0.70656 9.23648 2.91328 13.55776 1.83808 3.59424 1.47968 7.74144 1.82272 11.66848 0.21504 2.4576-0.11264 4.96128 0.1024 7.41888 0.42496 4.92032 1.18784 9.76384 3.23584 14.37696 0.86528 1.95072 1.16736 4.28544 1.19808 6.45632 0.15872 11.08992 0.13312 22.18496 0.2048 33.27488 0.00512 1.14688-0.32768 2.16576-1.31584 2.56-3.94752 1.57696-5.02272 4.6592-4.21376 8.41728 0.71168 3.30752 0.37888 6.75328 1.64352 9.99424 0.39936 1.01888 0.91648 1.77152 1.63328 2.46784 1.24928 1.22368 2.19648 2.67776 2.18624 4.40832-0.0256 5.61152 0.9984 11.35104-3.1744 16.32768-1.08032 1.28512-1.45408 3.66592-1.46432 5.73952-0.02048 5.35552 0.5632 10.80832-1.00352 15.98976-0.83968 2.76992-0.16896 4.55168 1.8688 6.10304 1.29024 0.98304 3.09248 1.6384 4.47488 1.41312 4.1728-0.68096 8.53504-0.09216 12.53888-1.75616 1.10592-0.4608 2.31424-0.7424 3.01568-2.07872 0.46592-0.88576 1.6896-1.60768 2.76992-1.54112 4.39808 0.26112 8.34048-0.60416 11.66336-3.72224 1.3312-1.24928 3.15392-1.03936 4.84864-0.98816 3.71712 0.11776 6.79936-1.13664 9.6256-3.6352 2.17088-1.92 5.2992-1.33632 7.9872-1.91488 0.896-0.19456 1.96096 0.26112 2.7392-0.36864 4.02432-3.26656 9.0368-3.29728 13.75232-4.34688 1.54624-0.34304 2.95424-1.1008 4.08064-2.35008 1.42336-1.58208 3.26144-2.39104 5.41184-2.24256 2.91328 0.2048 5.50912-0.59392 7.88992-2.24256 2.304-1.59744 5.04832-2.00704 7.67488-2.31424 2.97472-0.34816 5.52448-1.16736 7.8336-3.10272 1.27488-1.07008 2.88256-1.6896 4.67456-1.67936 6.4 0.03584 12.8 0.0512 19.2-0.0256 1.2288-0.01536 2.19136 0.44032 3.01056 1.11104 5.28384 4.34176 9.84576 9.40032 14.23872 14.62272 0.55808 0.66048 0.58368 1.37728 0.59904 2.14528 0.08704 4.67968-1.75104 8.5504-5.05344 11.74528-2.08384 2.01728-4.88448 1.80224-7.43936 1.84832-2.69312 0.04608-4.70016 1.04448-6.25152 3.072-0.6656 0.8704-1.47456 0.71168-2.28864 0.7424-11.41248 0.39424-22.81984 1.28512-34.2528 0.90624-2.2016-0.07168-3.97312 1.00864-5.57568 2.1248-2.46784 1.72032-5.0688 2.51904-8.02304 2.57024-1.6896 0.0256-3.59424 0.47616-4.62848 1.59232-2.3808 2.57536-5.56032 2.98496-8.56576 3.88096-0.8448 0.25088-1.50016 0.60928-2.21696 1.05472-1.8944 1.16736-3.52768 2.66752-6.03648 2.90304-1.792 0.16896-3.78368 0.9984-4.73088 3.04128-0.8448 1.82272-2.89792 1.55648-4.36736 2.2272-4.54144 2.0736-8.86272 4.44416-12.6976 7.6544-2.28352 1.91488-5.16608 2.90304-7.38816 4.94592-3.36384 3.08736-6.99392 5.888-10.2656 9.0624-2.304 2.23744-5.51424 3.50208-7.18336 6.3232-2.03776 3.44576-5.376 5.7088-7.58272 9.04192-1.69984 2.56512-4.29568 4.49024-5.41184 7.58784-1.37216 3.79904-2.89792 7.43424-2.68288 11.67872 0.3072 6.12864 0.0768 12.28288 0.12288 18.42688 0.01024 1.40288-0.35328 2.8672 0.75264 4.14208 0.29184 0.33792 0.29184 1.34656 0.00512 1.68448-1.09568 1.28-0.80384 2.75456-0.73216 4.1472 0.16896 3.13856-1.6384 6.05184-0.97792 9.22624 1.52576 7.30624 0.61952 14.70976 0.9472 22.06208 0.17408 3.92192 6.6048 10.5216 9.71776 10.79296 1.47968 0.128 2.53952 0.94208 3.53792 2.3296 2.19136 3.06176 5.67808 4.75648 8.69376 6.91712 6.26176 4.48512 12.73856 8.65792 18.99008 13.16864 3.31264 2.39104 7.08096 4.4544 10.46528 6.82496 4.18816 2.93888 8.78592 5.18656 12.92288 8.24832 3.12832 2.31936 6.10304 5.26336 10.1888 6.2976 1.2032 0.3072 2.32448 1.39776 3.21024 2.37568 0.67584 0.74752 1.34144 1.20832 2.28352 1.4336 2.87744 0.68608 4.98176 2.3296 7.19872 4.38272 2.74944 2.54976 6.33856 4.39808 10.04544 5.59104 0.86016 0.27648 1.7152 0.61952 2.16064 1.21344 1.72544 2.3296 4.06528 3.59936 6.80448 3.97312 2.91328 0.39424 4.096 3.27168 6.5536 4.16768 4.49024 1.6384 8.1408 4.78208 12.3136 6.99904 3.61472 1.92 8.13568 2.77504 10.85952 6.46144 0.57856 0.78336 1.95584 1.152 3.12832 1.47456 2.08384 0.58368 4.32128 1.11104 5.74976 2.93376 1.69472 2.15552 4.46976 1.31584 6.5024 2.51392 0.48128 0.2816 1.19296 0.3072 1.4848 0.84992 1.46432 2.75456 4.33152 3.15392 6.85056 3.68128 1.792 0.37376 2.87232 1.30048 3.96288 2.44224 1.34656 1.408 2.9184 2.31424 4.87424 2.38592 1.44384 0.0512 2.28352 1.01376 3.21536 1.87392 1.792 1.64864 3.73248 3.03104 6.31296 2.78528 2.23232-0.21504 3.40992 1.35168 4.70016 2.6368 1.34656 1.34144 2.816 2.08384 4.73088 2.0224 1.87392-0.06144 3.38944 0.63488 4.52096 2.20672 1.75616 2.43712 4.72064 2.40128 7.20896 3.25632 0.89088 0.3072 1.70496 0.65024 2.48832 1.13152 1.93024 1.18272 3.67104 2.59072 6.09792 2.99008 1.39776 0.2304 2.86208 1.01376 3.96288 2.432 1.5104 1.95072 4.16256 2.19136 6.4 2.67264 2.05824 0.44544 3.84512 1.30048 5.48352 2.39104 2.2528 1.48992 4.59264 2.46272 7.28064 2.42176 1.08544-0.01536 1.7408 0.56832 2.40128 1.2288 2.18112 2.18112 4.74624 3.39456 7.88992 3.4816 1.99168 0.05632 3.69664 1.25952 5.1968 2.35008 1.87392 1.3568 3.79904 2.16576 6.03136 2.24256 1.2032 0.04096 2.19648 0.59392 3.03104 1.2032 3.1232 2.27328 6.66624 3.49696 10.34752 4.2752 1.8944 0.39936 3.4816 1.14688 4.92032 2.33472 2.14528 1.77664 4.9664 1.40288 7.41888 2.23232 1.52576 0.512 2.944 0.83456 4.21376 1.94048 2.55488 2.2272 5.9904 2.00704 9.03168 2.88256 1.9456 0.55808 3.9168 1.01888 5.57056 2.2016 2.35008 1.68448 5.06368 2.11456 7.79264 2.44736 1.07008 0.13312 1.9456 0.44544 2.7904 1.07008 2.8928 2.12992 5.95456 3.56352 9.72288 3.76832 2.41152 0.13312 4.9152 1.14688 7.08608 2.304 2.59072 1.3824 5.15072 2.29376 8.09984 2.2272 2.14528-0.04608 4.04992 0.79872 5.84192 1.96608 2.33984 1.52064 4.74624 2.7648 7.72096 2.70848 5.45792-0.1024 10.92096 0 16.384 0.02048 3.77344 0.01536 7.31648 0.88576 10.6496 2.688 2.0736 1.12128 4.26496 1.80736 6.69696 1.96608 1.75104 0.11776 3.55328 0.49664 4.69504 2.36544 1.1264 1.83808 3.36384 2.35008 5.24288 2.87232 3.17952 0.87552 5.26848 3.0976 7.3216 5.28384 1.47456 1.57184 2.36544 3.59424 4.43904 4.736 0.62464 0.34304 1.47456 1.5872 1.35168 2.82624-0.21504 2.1504 0.94208 3.66592 2.33984 5.11488 2.22208 2.30912 2.7136 4.92032 1.39264 6.69696-0.75776 1.01888-1.66912 1.54624-3.0208 1.52576-4.352-0.06144-8.704 0.06656-13.05088-0.02048-2.02752-0.04096-3.83488 0.36352-5.4784 1.54112-3.51232 2.51392-7.45472 3.2768-11.72992 3.16928-5.25824-0.13312-10.56256-0.3328-15.73376 0.91648-2.92352 0.70656-5.49888 2.41664-8.48384 3.11296-1.06496 0.25088-2.09408 0.55296-3.18976 0.55808-3.67104 0.02048-7.33696 0.0256-11.008 0.0256-5.72416-0.00512-10.94656 1.34144-16.13312 4.08576-2.87744 1.52064-6.99904 1.55648-10.26048-0.34816-3.24608-1.89952-6.64064-3.10784-10.31168-3.80928-1.60768-0.3072-3.31264-0.97792-4.57728-1.98144-2.03776-1.61792-4.38272-2.05824-6.75328-2.59072-0.24576-0.05632-0.5632-0.02048-0.73728-0.16384-3.97824-3.33312-8.91904-4.98176-13.36832-7.4752-4.51584-2.52928-8.52992-5.77536-13.07648-8.2432-2.7136-1.47456-6.26176-2.33984-8.0128-4.31616-2.67264-3.01056-6.1952-4.352-9.0368-6.79936-1.05472-0.91136-2.31936-0.95232-3.456-1.42336-2.59072-1.0752-3.6352-3.73248-5.9648-5.19168-5.40672-3.38944-10.37312-7.47008-15.60064-11.1616-2.88256-2.03776-5.81632-4.3008-7.69536-7.49056-0.7168-1.21344-1.72032-1.84832-3.16928-1.67424-1.47456 0.1792-2.75456-0.48128-3.70688-1.39776-2.70848-2.60608-6.07232-4.21376-9.19552-6.13376-2.39104-1.46944-5.13536-2.28352-7.2704-4.33664-0.75264-0.72192-2.07872-1.28-3.49696-1.21344-1.54112 0.0768-3.0208-0.72192-3.93216-1.93536-1.12128-1.49504-2.51904-2.41664-4.15232-3.17952-1.97632-0.9216-3.69152-2.57024-5.54496-3.34336-3.58912-1.50016-6.12864-4.64384-9.8304-5.71904-3.1744-0.92672-5.37088-3.34336-8.09984-4.85888-4.224-2.34496-8.40192-4.80256-12.63616-7.13216-3.4816-1.91488-7.59296-3.04128-10.13248-6.49216-0.77312-1.05472-2.19648-1.29024-3.1744-1.39264-2.29376-0.24064-3.41504-2.10432-5.15584-2.93888-4.5312-2.16064-8.4736-5.2736-12.82048-7.72608-4.18304-2.3552-9.50272-3.14368-12.43648-7.5776-0.48128-0.72704-1.32608-0.7424-2.00192-1.01888-5.0688-2.06848-9.26208-5.53984-13.8496-8.38144-1.61792-1.00352-3.88096-1.16224-5.22752-2.38592-3.13344-2.85184-7.6288-3.4048-10.47552-6.64064-1.00864-1.14688-2.7904-1.26976-3.94752-2.1504-3.97312-3.03104-9.1136-4.16256-12.61568-7.94624-1.408-1.52064-3.68128-0.91648-5.4016-1.83808-0.54272-0.29184-1.26464-0.26112-1.79712-0.78336-3.90144-3.80928-8.77056-6.10304-13.53216-8.56576-2.88768-1.48992-5.48864-3.56352-8.7296-4.34176-2.61632-0.62976-3.41504-3.7632-6.0928-4.37248-2.69312-0.6144-5.30944-1.69472-8.12032-1.50016-3.10272 0.21504-3.01056 3.14368-3.22048 4.9664-0.3584 3.11808-0.9984 6.09792-1.95072 9.05728-0.1536 0.48128-0.07168 1.19296-0.384 1.43872-2.21696 1.75616-3.60448 3.93216-3.88608 6.77888-0.19968 2.01216-1.45408 3.52768-2.57536 5.05344-1.3312 1.81248-1.024 3.59424 0.07168 5.20192 1.37216 2.01728 2.89792 3.968 5.34528 4.86912 1.60256 0.5888 2.048 2.15552 2.19136 3.48672 0.24576 2.35008 0.36352 4.7616-0.22528 7.12192-0.24576 0.98816-0.57856 2.01728-0.51712 3.01056 0.26624 4.36224-0.68608 8.19712-2.67264 12.25728-2.39616 4.90496-2.1248 10.68544-2.02752 16.18432 0.0256 1.5616-0.10752 3.03104-0.95744 4.37248-0.08704 0.13824-0.0768 0.384-0.19456 0.45568-3.38432 2.17088-2.56512 5.59104-2.57536 8.73984-0.0256 6.82496 0.15872 13.66016-0.08704 20.47488-0.10752 2.944 1.10592 5.59616 1.10592 8.48896 0 1.35168 1.44384 2.2784 1.92 3.72736 0.7168 2.19648 0.8448 4.32128 0.7424 6.5024-0.59392 12.78976 1.26464 25.50784 1.0752 38.2976-0.04096 2.81088 1.24416 5.71904 2.71872 8.2688 0.72192 1.24928 0.82944 2.49344 0.93696 3.85536 0.96256 12.5184 0.76288 25.05728 0.97792 37.59104 0.07168 4.32128 1.47968 8.52992 3.22048 12.53376 0.28672 0.66048 0.39936 1.29024 0.4096 1.9712 0.23552 11.84768 1.13152 23.67488 1.01888 35.54304-0.0512 5.0688 0.62976 10.1632 3.31776 14.80192 0.72704 1.2544 1.1776 2.94912 1.17248 4.61312-0.01536 10.24 0.00512 20.48 0.0768 30.71488 0.01024 1.54112-0.49152 3.03616-1.35168 3.98848-2.39104 2.64192-2.74432 6.02112-3.13344 9.10336-0.4352 3.40992-0.60928 6.92736-0.82944 10.39872-0.08192 1.23904-0.13824 2.56-1.09056 3.57376-2.816 2.9952-2.75968 7.02976-3.82464 10.65984-0.29184 0.9984-0.66048 1.98656-1.38752 2.67264-1.82784 1.72544-3.0464 3.8912-3.98848 6.10304-1.7664 4.14208-4.89984 6.7072-8.78592 8.57088-2.18112 1.04448-7.1424-0.07168-8.69888-1.92-4.3776-5.1968-9.07264-10.09152-13.99296-14.76608-2.08896-1.98656-3.08224-4.15744-3.05664-7.12192 0.11776-14.16192 0.0768-28.32896 0.03072-42.49088-0.01536-4.35712-0.11776-8.81152 1.03936-12.95872 1.54624-5.53984 1.19296-11.15648 1.87392-16.70144 1.5872-12.91264 0.18432-25.84064 0.8704-38.7328 1.84832-34.688 0.34816-69.4016 0.84992-104.09984 0.0256-1.8432 0.48128-3.70176 1.29024-5.05856 1.408-2.37056 1.152-4.81792 1.5872-7.26528 1.13664-6.41024 0.14848-12.93824 1.05984-19.25632 0.85504-5.89312 0.64512-11.71968 0.6656-17.56672 0.09728-26.96192 0.02048-53.92896 0.06656-80.89088 0.01024-5.39648-4.39808-9.4208-9.38496-9.43104-4.608-0.01024-9.22112 0.128-13.824-0.03584-4.24448-0.14848-7.19872 1.9712-9.24672 5.248-2.2016 3.51744-4.52608 6.83008-7.33696 9.9328-2.32448 2.56512-3.97824 5.90336-6.26176 8.46848-2.72896 3.06688-4.85888 6.51264-7.26528 9.74848-3.584 4.82816-8.15616 8.77568-11.4432 13.88032-3.29728 5.12512-6.73792 10.20928-11.29472 14.42816-3.33312 3.08736-5.8624 6.90688-8.11008 10.81344-1.36192 2.37056-3.12832 4.46976-4.88448 6.36928-2.51392 2.72896-4.57728 5.81632-7.25504 8.42752-3.51744 3.42528-7.00416 7.03488-9.68704 11.10528-2.176 3.3024-4.3008 6.56896-6.81984 9.63584-1.024 1.24416-2.58048 1.63328-3.3792 2.89792-1.73568 2.75456-4.39808 4.74112-6.21568 7.33696-1.83296 2.62144-3.98848 4.992-6.02624 7.35744-4.08064 4.74624-7.69536 9.87648-12.12416 14.34112-5.7344 5.78048-11.33568 11.6992-16.81408 17.7152-7.52128 8.26368-15.36512 16.2048-23.24992 24.10496-2.11456 2.11968-4.8384 3.6864-6.70208 5.97504-3.22048 3.968-7.49056 6.79936-10.79296 10.624-3.39968 3.9424-7.54688 6.93248-11.83232 9.79456-2.29888 1.536-4.55168 3.17952-6.6304 4.99712-1.408 1.23392-3.02592 2.176-4.39296 3.38432-2.30912 2.03776-4.56192 4.08064-7.3472 5.46304-2.01728 1.00352-4.03968 2.00704-5.9904 3.12832-1.49504 0.85504-3.38944 1.11616-4.20864 3.072-0.26112 0.62464-1.32608 1.18784-2.08384 1.28512-2.78528 0.3584-5.03296 1.55136-7.1936 3.35872-1.44896 1.21344-3.47648 1.56672-5.5296 1.51552-4.85888-0.11264-9.51808 0.79872-13.80864 3.23072-1.408 0.79872-3.5584 1.0752-4.22912 0.03584-0.8192-1.26976-0.59392-3.13344 0.62976-4.88448 2.51904-3.60448 6.1184-6.13888 8.7552-9.53344 2.3808-3.06176 5.10464-5.82144 7.5008-8.87808 1.536-1.96096 3.5328-3.83488 5.4528-5.42208 2.70848-2.24256 4.50048-5.17632 7.02976-7.51104 4.80256-4.43904 9.76384-8.84224 13.78816-13.94688 3.46112-4.38272 8.15616-7.60832 11.01312-12.48256 0.58368-0.9984 1.47456-2.04288 2.4832-2.5344 3.80416-1.84832 4.864-5.88288 7.3216-8.78592 0.32256-0.384 0.47616-0.9472 0.84992-1.24928 4.72064-3.83488 7.3728-9.57952 12.66176-13.0304 2.51392-1.6384 3.49184-5.30944 5.92896-7.4752 3.79904-3.3792 6.54336-7.7824 10.4192-11.0336 4.11648-3.45088 6.144-8.33536 9.40032-12.3392 2.26304-2.78528 5.14048-5.05344 7.53152-7.74656 4.17792-4.7104 8.25856-9.48224 12.03712-14.55616 3.28704-4.41856 6.32832-9.1136 10.23488-13.01504 5.34016-5.34016 9.70752-11.35616 13.952-17.5616 1.67936-2.45248 3.52256-4.97152 5.78048-7.02464 3.37408-3.06688 5.2224-7.22944 7.79776-10.86976 0.42496-0.59904 0.63488-1.47968 1.24928-1.8688 3.87072-2.44224 5.17632-6.95296 8.22272-10.05056 4.28032-4.34176 6.35904-10.18368 10.112-14.90432 4.992-6.272 8.76544-13.38368 13.4144-19.90144 1.29536-1.81248 2.14528-3.968 3.54816-5.77024 0.87552-1.12128 1.57184-2.29888 1.90976-3.79904 0.45056-2.00192 1.05984-4.1472 3.40992-4.97664 0.29696-0.1024 0.67072-0.4096 0.73216-0.68608 0.97792-4.49024 4.3264-7.75168 6.10816-11.81696 0.59904-1.36192 1.60256-2.41152 2.56-3.45088 2.15552-2.3552 1.57696-5.54496 2.70848-8.20224 0.22016-0.51712 0.22016-1.12128 0.57856-1.64352 2.11456-3.08224 3.7632-6.33856 4.21376-10.14272 0.08192-0.70144 1.09056-1.2544 1.53088-1.96096 2.03776-3.28704 2.6112-7.04 2.92864-10.75712 0.16384-1.88928 0.51712-3.72736 1.792-4.81792 3.15904-2.69312 2.05824-6.1696 1.78688-9.2672-0.14336-1.65376-0.65024-3.38944-0.78336-5.15072-0.22016-2.92864-2.81088-4.95616-6.43584-5.04832-3.40992-0.08704-6.82496-0.02048-10.24-0.01536-0.16896 0-0.38912-0.06656-0.50688 0.01536-3.41504 2.4832-7.64416 2.09408-11.37152 2.39616-5.27872 0.42496-10.17344 3.12832-15.62624 2.23232-2.23232-0.36864-4.59264-0.32256-6.72256 0.84992-0.3584 0.19968-0.91648 0.2048-1.12128 0.4864-1.88928 2.63168-4.63872 2.48832-7.38304 2.34496-5.89312-0.3072-11.29984 1.46944-16.51712 3.92192-1.14688 0.54272-2.24256 0.81408-3.42016 0.6912-4.27008-0.45056-8.41216 0.65024-12.60544 1.04448-1.08032 0.1024-2.33472 0.74752-3.07712 1.54624-2.29888 2.47808-5.24288 2.79552-8.29952 2.97984-3.59936 0.22016-7.25504-0.48128-10.79808 0.9216-1.69984 0.67584-3.11808 1.792-5.06368 2.16576-3.48672 0.6656-6.92736 1.79712-10.496 1.37216-3.47136-0.41472-6.9888-0.68096-10.07104-2.9184-1.37728-0.9984-3.24608-1.664-5.21728-1.54112-2.00192 0.11776-3.8144-0.63488-5.34528-1.92-2.60096-2.18112-5.888-2.64704-8.96512-3.59936-3.52256-1.09056-5.7856-3.36896-7.28064-6.68672-0.58368-1.30048-1.48992-2.80576-2.66752-3.40992-1.73568-0.89088-2.24768-2.06848-1.8688-3.6608 0.3584-1.50528 1.90976-1.60768 3.15904-1.9712 0.0768-0.0256 0.16896-0.01024 0.256-0.00512 8.26368 0.55296 16.43008-1.3568 24.69888-0.93696 4.70016 0.24064 9.12384-0.82944 13.31712-3.16416 1.96096-1.09056 4.44416-0.98304 6.71232-1.05984 6.30784-0.21504 12.61568-0.29184 18.92864-0.39936 1.04448-0.01536 1.99168-0.1536 2.90816-0.73728 3.86048-2.47808 8.2688-3.40992 12.70784-3.65056 5.13536-0.27648 9.9584-1.00864 14.34624-3.97824 2.68288-1.81248 6.2208-0.40448 9.10848-1.83296 0.2816-0.13824 0.77824 0.06144 0.9984-0.11776 4.10112-3.26656 9.2416-3.36896 13.98784-4.67456 0.37888-0.1024 0.78336-0.38912 1.01888-0.71168 2.29888-3.0976 5.71392-3.5328 9.1648-3.84512 0.82432-0.07168 1.59232-0.34304 2.03264-0.93184 1.27488-1.69984 3.26656-2.16576 5.03808-2.61632 2.01216-0.50688 3.80416-1.37728 5.55008-2.3296 3.79392-2.06336 7.45472-4.37248 11.22816-6.48192 1.2288-0.68608 2.60608-1.16224 3.968-1.5616 1.01376-0.29696 2.22208-0.64512 2.6112-1.44384 1.21856-2.51392 3.78368-2.70848 5.76-3.95776 3.59424-2.27328 7.60832-4.0448 10.35776-7.50592 0.9216-1.15712 2.19648-1.78176 3.52256-2.39104 5.17632-2.37056 9.35424-6.16448 13.52704-9.90208 4.93568-4.41344 9.8048-8.91392 14.4896-13.58848 3.98848-3.97824 6.6816-8.31488 6.5792-14.62272-0.37888-22.69184-0.14848-45.39392-0.14848-68.09088 0.02048 0.05632 0.01536 0.05632 0.01536 0.05632z" p-id="39589"></path></svg>