<?xml version="1.0" standalone="no"?><!DOCTYPE svg PUBLIC "-//W3C//DTD SVG 1.1//EN" "http://www.w3.org/Graphics/SVG/1.1/DTD/svg11.dtd"><svg t="1740922751219" class="icon" viewBox="0 0 1024 1024" version="1.1" xmlns="http://www.w3.org/2000/svg" p-id="19734" xmlns:xlink="http://www.w3.org/1999/xlink" width="200" height="200"><path d="M600 156A36 36 0 0 1 636 192v176a36 36 0 0 1-36 36h-52v65.296H817.6a36 36 0 0 1 35.92 33.536l0.08 2.464v109.856h52a36 36 0 0 1 36 36v176a36 36 0 0 1-36 36h-176a36 36 0 0 1-36-36v-176a36 36 0 0 1 36-36h52v-73.856H548v73.856H600a36 36 0 0 1 36 36v176a36 36 0 0 1-36 36h-176a36 36 0 0 1-36-36v-176a36 36 0 0 1 36-36h52v-73.856H241.792v73.856h52a36 36 0 0 1 36 36v176a36 36 0 0 1-36 36h-176a36 36 0 0 1-36-36v-176a36 36 0 0 1 36-36h52v-109.856a36 36 0 0 1 33.536-35.92l2.464-0.08H476V404H424A36 36 0 0 1 388 368V192a36 36 0 0 1 36-36h176zM257.808 687.168h-104v104h104v-104z m306.192 0h-104v104h104v-104z m305.616 0h-104v104h104v-104zM564 228h-104v104h104v-104z" fill="#000000" opacity=".65" p-id="19735"></path></svg>